<?xml version="1.0" standalone="no"?>
<!DOCTYPE svg PUBLIC "-//W3C//DTD SVG 20010904//EN"
 "http://www.w3.org/TR/2001/REC-SVG-20010904/DTD/svg10.dtd">
<svg version="1.0" xmlns="http://www.w3.org/2000/svg"
 width="840.000000pt" height="859.000000pt" viewBox="0 0 840.000000 859.000000"
 preserveAspectRatio="xMidYMid meet">
<metadata>
Created by potrace 1.16, written by Peter Selinger 2001-2019
</metadata>
<g transform="translate(0.000000,859.000000) scale(0.100000,-0.100000)"
fill="#000000" stroke="none">
<path d="M2804 8160 c-77 -20 -167 -62 -224 -104 -113 -85 -222 -225 -274
-355 l-29 -70 -771 -3 c-873 -4 -817 1 -1001 -88 -227 -110 -390 -311 -444
-551 l-22 -94 3 -2080 3 -2080 24 -70 c84 -251 255 -438 484 -533 152 -64 118
-62 1302 -62 591 0 1075 1 1075 3 0 2 -13 61 -30 133 -27 119 -50 250 -65 366
l-6 47 -1012 3 -1012 3 -46 22 c-59 27 -116 84 -143 142 l-21 46 0 2015 c0
1897 1 2017 17 2052 25 53 73 104 127 136 l46 27 924 5 924 5 106 231 c58 127
115 243 127 257 11 14 36 35 55 46 34 21 37 21 1007 21 818 0 977 -2 1000 -14
57 -30 88 -79 193 -309 l105 -232 920 -5 919 -5 47 -23 c53 -26 97 -72 130
-135 l23 -42 3 -623 3 -622 47 -24 c120 -61 322 -190 437 -280 l60 -47 3 808
c2 704 0 818 -13 887 -51 254 -222 470 -460 582 -176 82 -124 78 -988 82
l-767 3 -51 101 c-63 127 -100 179 -194 266 -50 47 -101 83 -157 110 -152 75
-90 72 -1263 71 -993 0 -1054 -1 -1121 -19z"/>
<path d="M1150 6240 l0 -280 275 0 275 0 0 280 0 280 -275 0 -275 0 0 -280z"/>
<path d="M3773 6510 c-290 -28 -596 -146 -835 -322 -112 -82 -288 -262 -370
-378 -78 -110 -174 -297 -218 -424 -44 -128 -79 -316 -86 -458 -21 -420 117
-819 399 -1155 70 -83 214 -219 223 -210 2 2 15 48 29 102 35 134 70 240 122
369 43 108 43 109 24 130 -34 37 -112 166 -147 242 -19 40 -47 117 -62 171
-24 90 -27 112 -26 273 0 158 3 185 27 275 29 110 102 267 166 360 55 81 181
207 266 267 387 274 888 275 1276 3 l79 -56 113 44 c137 54 242 89 365 120 50
13 95 26 97 29 9 9 -144 166 -236 243 -331 276 -781 416 -1206 375z"/>
<path d="M5585 5388 c-203 -22 -467 -92 -660 -173 -741 -310 -1278 -931 -1476
-1705 -53 -207 -72 -369 -72 -610 1 -248 20 -408 79 -629 234 -892 943 -1587
1839 -1801 214 -51 328 -64 575 -64 230 0 336 9 510 46 1201 252 2046 1328
1996 2546 -14 358 -94 677 -250 997 -128 261 -276 467 -490 680 -395 394 -891
637 -1449 710 -130 17 -466 19 -602 3z m560 -558 c866 -120 1545 -804 1661
-1670 18 -135 18 -385 0 -520 -57 -428 -254 -818 -568 -1126 -370 -364 -836
-554 -1356 -554 -327 0 -602 64 -887 208 -1159 583 -1426 2143 -526 3075 180
186 327 295 546 402 216 106 436 170 672 195 104 10 346 5 458 -10z"/>
<path d="M5600 3735 l0 -555 -555 0 -555 0 0 -280 0 -280 555 0 555 0 0 -555
0 -555 278 2 277 3 1 535 c0 294 2 543 2 552 2 17 38 18 555 20 l552 3 3 277
2 278 -557 2 -558 3 0 553 1 552 -278 0 -278 0 0 -555z"/>
</g>
</svg>
