<?xml version="1.0" standalone="no"?>
<!DOCTYPE svg PUBLIC "-//W3C//DTD SVG 20010904//EN"
 "http://www.w3.org/TR/2001/REC-SVG-20010904/DTD/svg10.dtd">
<svg version="1.0" xmlns="http://www.w3.org/2000/svg"
 width="301.000000pt" height="167.000000pt" viewBox="0 0 301.000000 167.000000"
 preserveAspectRatio="xMidYMid meet">
<metadata>
Created by potrace 1.16, written by Peter Selinger 2001-2019
</metadata>
<g transform="translate(0.000000,167.000000) scale(0.100000,-0.100000)"
fill="#000000" stroke="none">
<path d="M947 1272 c-10 -10 -17 -35 -17 -55 l0 -37 -58 0 c-100 0 -96 14
-100 -369 -2 -179 0 -341 3 -359 3 -17 16 -41 27 -52 21 -20 36 -20 694 -20
482 0 680 3 698 11 14 7 30 25 36 42 14 41 14 766 0 803 -21 54 -17 53 -410
54 -411 0 -405 1 -416 -71 -6 -33 -10 -39 -30 -39 -20 0 -24 5 -24 33 0 18 -7
43 -16 55 -13 19 -24 22 -89 22 -87 0 -105 -12 -105 -71 0 -38 -2 -40 -27 -37
-25 3 -28 8 -31 43 -2 22 -8 45 -14 52 -17 20 -102 16 -121 -5z m1241 -164 l3
-128 -44 0 c-27 0 -49 -6 -57 -15 -7 -8 -23 -15 -35 -15 -12 0 -28 7 -35 15
-10 12 -42 15 -171 15 -104 0 -160 4 -165 11 -3 6 -30 22 -58 35 -38 18 -68
24 -121 24 -53 0 -83 -6 -121 -24 -28 -13 -55 -29 -58 -35 -5 -8 -86 -11 -257
-11 l-249 0 0 69 c0 45 5 72 13 80 9 7 112 12 313 13 l299 3 3 35 c1 19 5 41
7 48 4 10 82 12 367 10 l363 -3 3 -127z m-1200 -610 c9 -9 156 -12 605 -13
l592 0 0 -25 0 -25 -680 0 -680 0 -3 23 c-3 20 1 22 41 22 27 0 49 6 57 15 15
18 51 20 68 3z"/>
<path d="M1912 1168 c-7 -7 -12 -33 -12 -59 0 -65 21 -79 115 -79 94 0 115 14
115 79 0 26 -5 52 -12 59 -8 8 -46 12 -103 12 -57 0 -95 -4 -103 -12z"/>
</g>
</svg>
