<?xml version="1.0" standalone="no"?>
<!DOCTYPE svg PUBLIC "-//W3C//DTD SVG 20010904//EN"
 "http://www.w3.org/TR/2001/REC-SVG-20010904/DTD/svg10.dtd">
<svg version="1.0" xmlns="http://www.w3.org/2000/svg"
 width="512.000000pt" height="512.000000pt" viewBox="0 0 512.000000 512.000000"
 preserveAspectRatio="xMidYMid meet">
<metadata>
Created by potrace 1.16, written by Peter Selinger 2001-2019
</metadata>
<g transform="translate(0.000000,512.000000) scale(0.100000,-0.100000)"
fill="#000000" stroke="none">
<path d="M2081 4079 c-90 -27 -141 -81 -216 -230 -35 -69 -71 -132 -81 -140
-14 -11 -83 -15 -378 -19 -340 -5 -364 -6 -407 -26 -63 -30 -116 -79 -147
-138 l-27 -51 0 -1020 0 -1020 30 -53 c35 -64 71 -96 145 -131 l55 -26 1505 0
1505 0 55 26 c79 37 123 79 156 151 l29 63 0 985 c0 927 -1 988 -18 1037 -24
69 -92 144 -159 174 -52 24 -60 24 -420 29 -201 3 -368 7 -371 10 -2 3 -34 64
-70 136 -72 140 -112 190 -186 226 -46 23 -50 23 -506 25 -280 1 -473 -2 -494
-8z m909 -202 c17 -8 47 -55 96 -150 80 -154 105 -186 178 -222 l50 -25 332 0
c182 0 345 -3 363 -6 17 -4 42 -18 56 -32 l25 -25 0 -953 c0 -677 -3 -960 -11
-977 -6 -14 -22 -30 -36 -36 -17 -8 -437 -11 -1489 -11 l-1466 0 -29 29 -29
29 0 956 0 956 29 32 29 33 369 5 368 5 48 28 c60 35 87 73 162 225 47 97 65
125 90 137 25 12 95 15 435 15 302 0 411 -3 430 -13z"/>
<path d="M2397 3470 c-335 -60 -618 -306 -715 -622 -60 -192 -58 -414 3 -591
163 -466 654 -721 1132 -587 267 74 496 276 598 529 67 165 87 384 50 556 -57
272 -239 507 -492 634 -120 60 -222 83 -383 87 -80 1 -167 -1 -193 -6z m375
-233 c119 -38 203 -90 293 -181 131 -133 193 -274 202 -461 6 -142 -12 -229
-73 -355 -40 -81 -60 -109 -138 -185 -69 -69 -109 -99 -167 -128 -107 -52
-212 -77 -329 -77 -319 0 -584 199 -682 510 -19 63 -23 95 -22 205 0 113 4
141 27 210 82 246 276 422 532 481 92 21 261 12 357 -19z"/>
<path d="M2420 3056 c-119 -33 -243 -126 -302 -227 -35 -59 -65 -151 -70 -216
l-5 -53 57 0 57 0 6 56 c16 159 182 325 341 341 l56 6 0 53 0 54 -47 -1 c-27
0 -68 -6 -93 -13z"/>
<path d="M3531 3366 c-68 -38 -66 -152 4 -184 75 -34 155 13 155 93 0 81 -87
131 -159 91z"/>
<path d="M1230 3835 l0 -55 205 0 205 0 0 55 0 55 -205 0 -205 0 0 -55z"/>
</g>
</svg>
